<svg width="24" height="24" fill="none" xmlns="http://www.w3.org/2000/svg"><g clip-path="url(#a)"><mask id="b" style="mask-type:luminance" maskUnits="userSpaceOnUse" x="0" y="0" width="24" height="24"><path d="M12 24c6.627 0 12-5.373 12-12S18.627 0 12 0 0 5.373 0 12s5.373 12 12 12Z" fill="#fff"/></mask><g mask="url(#b)"><path d="M12 0h12v3l-1.5 1.5L24 6v3l-1.5 1.5L24 12v3l-1.5 1.5L24 18v3l-12 1.5L0 21v-3l1.5-1.5L0 15v-3L12 0Z" fill="#EEE"/><path d="M10.5 3H24v3H10.5V3Zm0 6H24v3H12l-1.5-3ZM0 15h24v3H0v-3Zm0 6h24v3H0v-3Z" fill="#D80027"/><path d="M0 0h12v12H0V0Z" fill="#0052B4"/><path d="m8.766 11.39 2.671-1.921h-3.28l2.671 1.921-1.031-3.14-1.031 3.14Zm-3.797 0L7.64 9.47H4.359l2.672 1.921L6 8.25l-1.031 3.14Zm-3.797 0L3.844 9.47H.563l2.671 1.921-1.03-3.14-1.032 3.14Zm7.594-3.796 2.671-1.922h-3.28l2.671 1.922-1.031-3.141-1.031 3.14Zm-3.797 0L7.64 5.672H4.359l2.672 1.922L6 4.453l-1.031 3.14Zm-3.797 0 2.672-1.922H.563l2.671 1.922-1.03-3.141-1.032 3.14ZM8.766 3.75l2.671-1.922h-3.28l2.671 1.922L9.797.61 8.766 3.75Zm-3.797 0L7.64 1.828H4.359L7.031 3.75 6 .61 4.969 3.75Zm-3.797 0 2.672-1.922H.563L3.233 3.75 2.204.61 1.171 3.75Z" fill="#EEE"/></g></g><defs><clipPath id="a"><path fill="#fff" d="M0 0h24v24H0z"/></clipPath></defs></svg>