<svg xmlns="http://www.w3.org/2000/svg" width="24" height="24" fill="none"><g clip-path="url(#a)"><mask id="b" width="24" height="24" x="0" y="0" maskUnits="userSpaceOnUse" style="mask-type:luminance"><path fill="#fff" d="M12 0c6.627 0 12 5.373 12 12s-5.373 12-12 12S0 18.627 0 12 5.373 0 12 0Z"/></mask><g mask="url(#b)"><path fill="#FFDA44" d="m0 18 12 1.5L24 18V6L12 4.5 0 6v12Z"/><path fill="#D80027" d="M0 24h24v-6H0v6ZM0 6h24V0H0v6Z"/><path fill="#EEE" d="M6.75 9.75H6v3.75h.75V9.75Zm6 0h.75v3.75h-.75V9.75ZM9.75 8.625c1.243 0 2.25.672 2.25 1.5s-1.007 1.5-2.25 1.5-2.25-.672-2.25-1.5 1.007-1.5 2.25-1.5Z"/><path fill="#D80027" d="M6.75 14.625a.375.375 0 0 1-.75 0v-.375a.375.375 0 0 1 .75 0v.375ZM13.5 14.625a.375.375 0 0 1-.75 0v-.375a.375.375 0 0 1 .75 0v.375ZM9.75 11.25v-1.125a1.125 1.125 0 0 1 2.25 0v1.125H9.75Z"/><path fill="#FF9811" d="M6.75 14.25H6a.375.375 0 0 1 0-.75h.75a.375.375 0 0 1 0 .75ZM13.5 14.25h-.75a.375.375 0 0 1 0-.75h.75a.375.375 0 0 1 0 .75ZM6.75 9.75H6A.375.375 0 1 1 6 9h.75a.375.375 0 1 1 0 .75ZM13.5 9.75h-.75a.375.375 0 0 1 0-.75h.75a.375.375 0 0 1 0 .75ZM7.5 11.25v-1.125c0-.375.188-.656.422-.89l.234.28.235-.468a.984.984 0 0 1 .468 0l.235.469.234-.282c.281.235.422.516.422.891v1.125h-.422l-.234-.375-.235.375h-.468l-.235-.375-.234.375H7.5Z"/><path fill="#D80027" d="M5.719 12.375a.188.188 0 0 1 0-.375h8.062a.188.188 0 1 1 0 .375H5.72Zm0-1.125a.188.188 0 0 1 0-.375H7.03a.188.188 0 0 1 0 .375H5.72Zm6.75 0a.188.188 0 1 1 0-.375h1.312a.188.188 0 1 1 0 .375H12.47Z"/><path fill="#EEE" d="M9.188 16.125a.762.762 0 0 1-.704-.516l-.234.047a.74.74 0 0 1-.75-.75.74.74 0 0 1 .75-.75c.328 0 .61.188.703.516a.75.75 0 0 1 .797.187.75.75 0 0 1 .797-.187.75.75 0 1 1 .469.937.75.75 0 0 1-1.266.235.668.668 0 0 1-.563.281Zm0-.375a.37.37 0 0 0 .374-.375c0-.234-.14-.375-.374-.375a.37.37 0 0 0-.376.375c0 .188.188.375.376.375Zm1.124 0a.37.37 0 0 0 .376-.375c0-.234-.141-.375-.376-.375a.37.37 0 0 0-.374.375c0 .188.187.375.374.375Zm-2.062-.469.188-.047.187-.375c0-.187-.188-.328-.375-.328a.37.37 0 0 0-.375.375c0 .188.188.375.375.375Zm3 0a.37.37 0 0 0 .375-.375c0-.234-.14-.375-.375-.375-.188 0-.375.14-.375.328l.188.375.187.047Z"/><path fill="#FF9811" d="M9.375 16.5h.75V15h-.75v1.5Z"/><path fill="#EEE" d="M9.75 13.5H12v-2.25H9.75v2.25Z"/><path fill="#D80027" d="m11.625 14.25-.375-.375h-3l-.375.375c0 .61.844 1.125 1.875 1.125 1.031 0 1.875-.516 1.875-1.125ZM7.5 13.5h2.25v-2.25H7.5v2.25ZM11.344 12.656a.469.469 0 0 1-.938 0v-.562a.469.469 0 0 1 .938 0v.562Z"/><path fill="#FF9811" d="M7.875 13.125v-.375h.375V12h-.375v-.375h1.5V12H9v.75h.375v.375h-1.5Zm.375.75h3V13.5h-3v.375Z"/><path fill="#FFDA44" d="M8.719 14.25a.281.281 0 1 1 0 .562.281.281 0 0 1 0-.562ZM9.75 14.25a.281.281 0 1 1 0 .562.281.281 0 0 1 0-.562ZM10.781 14.25a.281.281 0 1 1 0 .562.281.281 0 0 1 0-.562Z"/><path fill="#D80027" d="M7.922 11.25V9.234c.14-.097.3-.16.469-.187v2.203h-.47Zm.937 0V9.047c.169.026.33.09.47.187v2.016h-.47Z"/><path fill="#338AF3" d="M9.75 10.5a.75.75 0 1 1 0 1.5.75.75 0 0 1 0-1.5ZM13.5 9h-.75a.375.375 0 0 1 0-.75h.75a.375.375 0 0 1 0 .75ZM6.75 9H6a.375.375 0 1 1 0-.75h.75a.375.375 0 1 1 0 .75Z"/></g></g><defs><clipPath id="a"><path fill="#fff" d="M0 24h24V0H0z"/></clipPath></defs></svg>