<svg width="237" height="273" fill="none" xmlns="http://www.w3.org/2000/svg"><path d="m95.836 136.765.43 1.615-.43-1.615Zm64.814-56.461-1.549-.628 1.549.628Zm54.929-71.248a8.913 8.913 0 1 0 17.826 0 8.913 8.913 0 0 0-17.826 0ZM.559 136.14l-.104 1.668h.001l.003.001H.47l.043.003.17.01.66.04 2.518.147.19-3.337c-1.085-.062-1.933-.112-2.51-.146l-.656-.04-.168-.01a.87.87 0 0 1-.042-.003H.662v-.001l-.104 1.668Zm10.107 2.241c2.037.107 4.322.223 6.802.343l.161-3.338c-2.474-.12-4.755-.236-6.788-.343l-.175 3.338Zm13.624.66c2.192.097 4.477.194 6.828.288l.133-3.34c-2.345-.093-4.625-.19-6.813-.287l-.148 3.339Zm13.657.544c2.245.078 4.525.152 6.82.22l.098-3.341c-2.288-.067-4.562-.141-6.801-.22l-.117 3.341Zm13.65.398c2.289.052 4.571.096 6.829.129l.049-3.342a839.056 839.056 0 0 1-6.801-.128l-.077 3.341Zm13.672.197c2.342.01 4.633.006 6.846-.014l-.03-3.343c-2.197.021-4.472.025-6.801.014l-.015 3.343Zm13.7-.142c2.455-.073 4.762-.174 6.875-.308l-.212-3.336c-2.067.132-4.335.231-6.762.303l.099 3.341Zm13.782-.975c1.334-.192 2.52-.417 3.516-.683l-.863-3.229c-.825.22-1.871.423-3.129.604l.476 3.308Zm3.516-.683c.978-.261 2.02-.574 3.118-.937l-1.05-3.173a52.583 52.583 0 0 1-2.93.881l.862 3.229Zm9.161-3.229a104.41 104.41 0 0 0 5.839-2.693l-1.49-2.992a101.15 101.15 0 0 1-5.652 2.607l1.303 3.078Zm11.5-5.71a123.284 123.284 0 0 0 5.495-3.315l-1.799-2.816a120.408 120.408 0 0 1-5.347 3.225l1.651 2.906Zm10.813-6.91a121.678 121.678 0 0 0 5.12-3.866l-2.085-2.613a117.125 117.125 0 0 1-4.978 3.76l1.943 2.719Zm10.026-8.006a110.13 110.13 0 0 0 4.667-4.417l-2.368-2.359a106.673 106.673 0 0 1-4.525 4.283l2.226 2.493Zm9.063-9.112a96.442 96.442 0 0 0 4.09-4.973l-2.652-2.035a93.677 93.677 0 0 1-3.948 4.802l2.51 2.206Zm7.831-10.223a84.954 84.954 0 0 0 3.349-5.518l-2.922-1.623a81.5 81.5 0 0 1-3.217 5.3l2.79 1.84Zm6.26-11.287c.445-.977.871-1.968 1.278-2.971l-3.098-1.256a75.05 75.05 0 0 1-1.222 2.843l3.042 1.384Zm1.278-2.971c.427-1.053.84-2.1 1.242-3.139l-3.118-1.204a197.48 197.48 0 0 1-1.222 3.087l3.098 1.256Zm3.576-9.452a314.353 314.353 0 0 0 2.168-6.35l-3.173-1.049a312.563 312.563 0 0 1-2.146 6.283l3.151 1.116Zm4.227-12.718c.695-2.185 1.359-4.298 2.021-6.37l-3.184-1.016c-.661 2.07-1.333 4.207-2.022 6.373l3.185 1.013Zm4.091-12.688a159.029 159.029 0 0 1 2.239-6.215l-3.117-1.206A162.65 162.65 0 0 0 170.928 45l3.165 1.075Zm4.81-12.248c.959-2.022 1.98-3.924 3.092-5.7l-2.834-1.772a59.287 59.287 0 0 0-3.278 6.04l3.02 1.432Zm6.894-10.84a32.099 32.099 0 0 1 4.63-4.323l-2.025-2.66a35.423 35.423 0 0 0-5.112 4.773l2.507 2.21Zm10.035-7.644a38.631 38.631 0 0 1 5.969-2.303l-.952-3.204a42.02 42.02 0 0 0-6.484 2.504l1.467 3.003Zm12.28-3.73a69.352 69.352 0 0 1 6.453-.733l-.229-3.334a72.65 72.65 0 0 0-6.764.769l.54 3.298Zm13.006-.94c1.08.001 2.187.02 3.323.054l.103-3.34a118.562 118.562 0 0 0-3.42-.057l-.006 3.342ZM166.661 191.728l-1.561.597 1.561-.597Zm52.255 71.796a8.913 8.913 0 0 1 8.979-8.846 8.913 8.913 0 1 1-8.979 8.846Zm-114.029-128.36c1.083.308 2.249.676 3.486 1.104l-1.093 3.159a62.441 62.441 0 0 0-3.309-1.049l.916-3.214Zm10.26 3.772c2.085.915 4.28 1.961 6.547 3.14l-1.543 2.965a105.998 105.998 0 0 0-6.347-3.044l1.343-3.061Zm12.866 6.685a115.229 115.229 0 0 1 6.088 3.934l-1.902 2.748a112.146 112.146 0 0 0-5.911-3.819l1.725-2.863Zm11.921 8.255a105.776 105.776 0 0 1 5.529 4.699l-2.252 2.47a101.655 101.655 0 0 0-5.354-4.55l2.077-2.619Zm10.719 9.79a92.322 92.322 0 0 1 4.792 5.474l-2.601 2.1a89.155 89.155 0 0 0-4.618-5.277l2.427-2.297Zm9.127 11.327a82.055 82.055 0 0 1 3.817 6.214l-2.923 1.62a78.858 78.858 0 0 0-3.662-5.961l2.768-1.873Zm7.056 12.758a76.119 76.119 0 0 1 1.386 3.38l-3.122 1.194a74.116 74.116 0 0 0-1.325-3.233l3.061-1.341Zm1.386 3.38a210.23 210.23 0 0 1 1.165 3.12l-3.141 1.144a199.54 199.54 0 0 0-1.146-3.07l3.122-1.194Zm3.349 9.39a313.805 313.805 0 0 1 2.027 6.3l-3.191.993a314.465 314.465 0 0 0-2.006-6.235l3.17-1.058Zm3.949 12.623c.649 2.172 1.265 4.256 1.882 6.319l-3.202.959c-.612-2.047-1.242-4.18-1.882-6.322l3.202-.956Zm3.806 12.595c.68 2.142 1.366 4.204 2.079 6.185l-3.145 1.132a176.742 176.742 0 0 1-2.12-6.306l3.186-1.011Zm4.458 12.2a58.815 58.815 0 0 0 2.871 5.733l-2.897 1.668a62.437 62.437 0 0 1-3.034-6.057l3.06-1.344Zm6.422 10.96a31.812 31.812 0 0 0 4.371 4.465l-2.142 2.566a35.21 35.21 0 0 1-4.83-4.931l2.601-2.1Zm9.542 7.95a35.837 35.837 0 0 0 5.794 2.46l-1.042 3.176a39.082 39.082 0 0 1-6.333-2.692l1.581-2.944Zm11.961 4.009c1.973.362 4.085.638 6.348.822l-.271 3.332a67.111 67.111 0 0 1-6.681-.867l.604-3.287Zm12.806 1.093a110.04 110.04 0 0 0 3.273-.031l.082 3.341c-1.153.028-2.278.039-3.376.032l.021-3.342Z" fill="#CC5A5A"/></svg>