<svg width="21" height="19" fill="none" xmlns="http://www.w3.org/2000/svg"><path fill-rule="evenodd" clip-rule="evenodd" d="M15.792 3.568a2.619 2.619 0 0 0-2.92-1.494L5.887 3.49h9c.309 0 .61.027.904.078Zm1.522.52C17.028 1.883 14.881.318 12.601.78L4.913 2.34C2.524 2.823.81 4.896.81 7.3v6.54c0 2.797 2.301 5.065 5.14 5.065h8.938c2.764 0 5.018-2.15 5.135-4.845h.005V8.335h-.005c-.08-1.84-1.155-3.425-2.709-4.246Zm1.367 4.247c-.116-1.965-1.77-3.524-3.793-3.524H5.95c-2.099 0-3.8 1.676-3.8 3.744v5.285c0 2.068 1.701 3.744 3.8 3.744h8.938c2.023 0 3.677-1.559 3.793-3.524h-3.346c-1.604 0-2.905-1.281-2.905-2.863 0-1.58 1.3-2.862 2.905-2.862h3.346Zm.006 4.404V9.656h-3.352c-.864 0-1.564.69-1.564 1.541 0 .852.7 1.542 1.564 1.542h3.352Zm-4.022-1.542c0-.364.3-.66.67-.66h.179c.37 0 .67.296.67.66 0 .365-.3.661-.67.661h-.179a.666.666 0 0 1-.67-.66Zm-10.28 3.084c0-.365.3-.661.67-.661h5.364c.37 0 .67.296.67.66 0 .365-.3.661-.67.661H5.056a.666.666 0 0 1-.67-.66Z" fill="#fff"/></svg>