<svg width="25" height="25" fill="none" xmlns="http://www.w3.org/2000/svg"><g clip-path="url(#a)"><path d="M1.563 4.688a1.56 1.56 0 0 1 1.562-1.563h18.75a1.56 1.56 0 0 1 1.563 1.563 1.56 1.56 0 0 1-1.563 1.562H3.125a1.56 1.56 0 0 1-1.563-1.563Zm0 7.812a1.56 1.56 0 0 1 1.562-1.563h18.75a1.56 1.56 0 0 1 1.563 1.563 1.56 1.56 0 0 1-1.563 1.563H3.125A1.56 1.56 0 0 1 1.562 12.5Zm21.875 7.813a1.56 1.56 0 0 1-1.563 1.562H3.125a1.56 1.56 0 0 1-1.563-1.563 1.56 1.56 0 0 1 1.563-1.562h18.75a1.56 1.56 0 0 1 1.563 1.563Z" fill="#fff"/></g><defs><clipPath id="a"><path fill="#fff" transform="translate(1.563)" d="M0 0h21.875v25H0z"/></clipPath></defs></svg>