<svg width="50" height="8" fill="none" xmlns="http://www.w3.org/2000/svg"><path d="M48.913 4.352a.5.5 0 0 0-.002-.707L45.719.473a.5.5 0 0 0-.705.709l2.837 2.82-2.82 2.837a.5.5 0 0 0 .71.705l3.172-3.192ZM.56 4.644l.857-.003-.003-1-.857.003.003 1Zm2.571-.008 1.715-.005-.003-1-1.715.005.003 1Zm3.429-.01 1.714-.006-.003-1-1.714.006.003 1Zm3.428-.01 1.715-.006-.003-1-1.715.005.003 1Zm3.429-.01 1.714-.006-.003-1-1.714.005.003 1Zm3.429-.011 1.714-.005-.003-1-1.714.005.003 1Zm3.428-.01 1.714-.006-.003-1-1.714.006.003 1Zm3.429-.01 1.714-.006-.003-1-1.714.005.003 1Zm3.428-.011 1.715-.005-.003-1-1.715.005.003 1Zm3.429-.01 1.714-.005-.003-1-1.714.005.003 1Zm3.428-.01 1.715-.006-.003-1-1.715.005.003 1Zm3.429-.01 1.714-.006-.003-1-1.714.005.003 1Zm3.428-.011 1.715-.005-.003-1-1.714.005.002 1Zm3.43-.01 1.713-.005-.003-1-1.714.005.003 1Zm3.428-.01.857-.003-.003-1-.857.002.003 1Z" fill="#CC5A5A"/></svg>