<svg xmlns="http://www.w3.org/2000/svg" width="24" height="24" fill="none"><path fill="#CC5A5A" d="m3.625 21.7-.469-.585.469.585Zm2.827-2.262-.468-.585.468.585ZM2.75 8A4.25 4.25 0 0 1 7 3.75v-1.5A5.75 5.75 0 0 0 1.25 8h1.5Zm0 5.5V8h-1.5v5.5h1.5Zm0 .5v-.5h-1.5v.5h1.5Zm0 6.92V14h-1.5v6.92h1.5Zm.406.195a.25.25 0 0 1-.406-.196h-1.5c0 1.468 1.697 2.284 2.843 1.367l-.937-1.171Zm2.828-2.262-2.828 2.262.937 1.17 2.828-2.261-.937-1.171ZM17 18.25H7.702v1.5H17v-1.5ZM21.25 14A4.25 4.25 0 0 1 17 18.25v1.5A5.75 5.75 0 0 0 22.75 14h-1.5Zm0-6v6h1.5V8h-1.5ZM17 3.75A4.25 4.25 0 0 1 21.25 8h1.5A5.75 5.75 0 0 0 17 2.25v1.5Zm-10 0h10v-1.5H7v1.5Zm-.08 16.274a1.25 1.25 0 0 1 .782-.274v-1.5a2.75 2.75 0 0 0-1.718.603l.937 1.17Z"/><circle cx="7.05" cy="11.05" r="1.25" fill="#CC5A5A"/><circle cx="12.05" cy="11.05" r="1.25" fill="#CC5A5A"/><circle cx="17.05" cy="11.05" r="1.25" fill="#CC5A5A"/></svg>