<svg xmlns="http://www.w3.org/2000/svg" width="19" height="18" fill="none"><mask id="a" fill="#CC5A5A"><path fill-rule="evenodd" d="m13.45 6.796-3.198 2.576a1.667 1.667 0 0 1-2.06 0L4.966 6.796" clip-rule="evenodd"/></mask><path fill="#CC5A5A" d="M14.078 7.575a1 1 0 0 0-1.254-1.558l1.254 1.558Zm-3.826 1.797.617.787.01-.009-.627-.778Zm-2.06 0-.624.781.007.005.617-.786ZM5.59 6.014a1 1 0 0 0-1.248 1.563L5.59 6.014Zm7.234.003-3.2 2.576 1.255 1.557 3.2-2.575-1.255-1.558Zm-3.19 2.568a.667.667 0 0 1-.825 0l-1.234 1.573a2.667 2.667 0 0 0 3.294 0L9.635 8.585Zm-.818.005L5.59 6.014 4.342 7.577l3.226 2.576L8.816 8.59Z" mask="url(#a)"/><path stroke="#CC5A5A" stroke-linecap="round" stroke-linejoin="round" d="M15.917 6.566v4.955a3.263 3.263 0 0 1-.862 2.409 3.218 3.218 0 0 1-2.321 1.032H5.666c-1.863 0-3.166-1.503-3.166-3.47V6.596c0-1.967 1.303-3.471 3.166-3.471h7.068c.88.01 1.72.383 2.321 1.033.603.65.915 1.52.862 2.408Z"/></svg>