<svg xmlns="http://www.w3.org/2000/svg" width="24" height="24" fill="none"><path fill="#CC5A5A" d="m2.24 20.03-.708-.25.707.25Zm1.53 1.531.25.707-.25-.707Zm2.523-.892-.25-.707.25.707Zm-3.192-4.102-.667.343.667-.343Zm.066.835-.707-.25.707.25ZM2.75 12A9.25 9.25 0 0 1 12 2.75v-1.5C6.063 1.25 1.25 6.063 1.25 12h1.5Zm1.018 4.224A9.207 9.207 0 0 1 2.75 12h-1.5c0 1.767.427 3.437 1.184 4.91l1.334-.686Zm-.822 4.056.929-2.628-1.415-.5-.928 2.628 1.414.5Zm.574.574a.45.45 0 0 1-.574-.574l-1.414-.5c-.546 1.545.943 3.034 2.488 2.488l-.5-1.414Zm2.524-.892-2.524.892.5 1.414 2.523-.891-.5-1.415ZM12 21.25a9.205 9.205 0 0 1-4.478-1.154l-.727 1.312A10.705 10.705 0 0 0 12 22.75v-1.5ZM21.25 12A9.25 9.25 0 0 1 12 21.25v1.5c5.937 0 10.75-4.813 10.75-10.75h-1.5ZM12 2.75A9.25 9.25 0 0 1 21.25 12h1.5c0-5.937-4.813-10.75-10.75-10.75v1.5ZM6.543 21.377a.31.31 0 0 1 .252.031l.727-1.312a1.81 1.81 0 0 0-1.478-.134l.5 1.415ZM2.434 16.91a.31.31 0 0 1 .026.243l1.415.5a1.809 1.809 0 0 0-.107-1.43l-1.334.687Z"/><circle cx="7.05" cy="12.05" r="1.25" fill="#CC5A5A"/><circle cx="12.05" cy="12.05" r="1.25" fill="#CC5A5A"/><circle cx="17.05" cy="12.05" r="1.25" fill="#CC5A5A"/></svg>