<svg xmlns="http://www.w3.org/2000/svg" width="24" height="24" fill="none"><path fill="#CC5A5A" d="m2.315 9.636-.244.709.244-.71Zm0 4.728-.244-.709.244.71Zm19.37 0 .244-.709-.244.71Zm0-4.728-.245-.71.245.71ZM6 3.25A4.75 4.75 0 0 0 1.25 8h1.5A3.25 3.25 0 0 1 6 4.75v-1.5Zm12 0H6v1.5h12v-1.5ZM22.75 8A4.75 4.75 0 0 0 18 3.25v1.5A3.25 3.25 0 0 1 21.25 8h1.5Zm0 1.223V8h-1.5v1.223h1.5Zm-2 2.777c0-.765.492-1.418 1.18-1.655l-.49-1.418A3.251 3.251 0 0 0 19.25 12h1.5Zm1.18 1.655A1.751 1.751 0 0 1 20.75 12h-1.5c0 1.425.917 2.634 2.19 3.073l.49-1.418ZM22.75 16v-1.223h-1.5V16h1.5ZM18 20.75A4.75 4.75 0 0 0 22.75 16h-1.5A3.25 3.25 0 0 1 18 19.25v1.5Zm-12 0h12v-1.5H6v1.5ZM1.25 16A4.75 4.75 0 0 0 6 20.75v-1.5A3.25 3.25 0 0 1 2.75 16h-1.5Zm0-1.223V16h1.5v-1.223h-1.5Zm1.31.296A3.251 3.251 0 0 0 4.75 12h-1.5c0 .765-.492 1.418-1.18 1.655l.49 1.418ZM4.75 12a3.251 3.251 0 0 0-2.19-3.073l-.49 1.418c.688.237 1.18.89 1.18 1.655h1.5Zm-3.5-4v1.223h1.5V8h-1.5Zm1.31.927c.067.023.19.111.19.296h-1.5c0 .566.394.975.82 1.122l.49-1.418Zm.19 5.85a.303.303 0 0 1-.19.296l-.49-1.418c-.426.147-.82.556-.82 1.122h1.5Zm18.69.296a.303.303 0 0 1-.19-.296h1.5c0-.566-.394-.975-.82-1.122l-.49 1.418Zm-.19-5.85c0-.185.123-.273.19-.296l.49 1.418c.426-.147.82-.556.82-1.122h-1.5Z"/><path stroke="#CC5A5A" stroke-linecap="round" stroke-linejoin="round" stroke-width="1.5" d="M15 7V4M15 13.5v-3M15 20v-3"/></svg>