<svg width="29" height="29" fill="none" xmlns="http://www.w3.org/2000/svg"><path d="M26.281 0H2.72A2.727 2.727 0 0 0 0 2.719V26.28A2.727 2.727 0 0 0 2.719 29H26.28A2.727 2.727 0 0 0 29 26.281V2.72A2.727 2.727 0 0 0 26.281 0ZM10.875 23.563H7.25V10.874h3.625v12.688Zm-1.813-14.5a1.812 1.812 0 1 1 0-3.625 1.812 1.812 0 0 1 0 3.625Zm14.5 14.5h-3.625v-7.25a1.812 1.812 0 0 0-3.625 0v7.25h-3.625V10.874h3.626v2.25c.746-1.027 1.892-2.25 3.171-2.25 2.255 0 4.078 2.028 4.078 4.531v8.156Z" fill="url(#a)"/><defs><linearGradient id="a" x1="0" y1="14.5" x2="29" y2="14.5" gradientUnits="userSpaceOnUse"><stop stop-color="#BF3131"/><stop offset="1" stop-color="#692E2E"/></linearGradient></defs></svg>