<svg width="92" height="91" fill="none" xmlns="http://www.w3.org/2000/svg"><path d="M65.407 33.343a1.812 1.812 0 0 1 0 2.564L40.032 61.282a1.814 1.814 0 0 1-2.564 0L26.593 50.407a1.813 1.813 0 1 1 2.564-2.564l9.593 9.592 24.093-24.092a1.811 1.811 0 0 1 2.564 0ZM91.313 45.5A45.312 45.312 0 1 1 46 .187 45.362 45.362 0 0 1 91.313 45.5Zm-3.626 0A41.687 41.687 0 1 0 46 87.188 41.733 41.733 0 0 0 87.688 45.5Z" fill="url(#a)"/><defs><linearGradient id="a" x1=".688" y1="45.5" x2="91.313" y2="45.5" gradientUnits="userSpaceOnUse"><stop stop-color="#BF3131"/><stop offset="1" stop-color="#692E2E"/></linearGradient></defs></svg>