<svg xmlns="http://www.w3.org/2000/svg" width="38" height="39" fill="none"><circle cx="5.39" cy="5.39" r="5.39" stroke="snow" transform="matrix(-1 0 0 1 24.727 8.222)"/><path stroke="snow" d="M9.905 27c0-1.16.728-2.194 1.82-2.584a22.63 22.63 0 0 1 15.224 0A2.743 2.743 0 0 1 28.77 27v1.772a2.63 2.63 0 0 1-3 2.603l-.528-.075a41.741 41.741 0 0 0-11.807 0l-.528.075a2.63 2.63 0 0 1-3.001-2.603V27Z"/><path stroke="snow" stroke-linecap="round" d="M27.422 19.152a4.235 4.235 0 0 0 0-8.47M32.06 28.814l.415.059a2.066 2.066 0 0 0 2.359-2.045v-1.393c0-.911-.573-1.724-1.43-2.03a17.784 17.784 0 0 0-2.613-.714M10.578 19.152a4.235 4.235 0 1 1 0-8.47M5.94 28.814l-.415.059a2.066 2.066 0 0 1-2.358-2.045v-1.393c0-.911.572-1.724 1.43-2.03a17.785 17.785 0 0 1 2.612-.714"/></svg>