<svg width="243" height="437" fill="none" xmlns="http://www.w3.org/2000/svg"><path d="m96.364 207.529-.59-1.563.59 1.563Zm64.833-79.779-1.606-.461 1.606.461Zm54.949-100.67a8.912 8.912 0 1 0 17.825 0 8.913 8.913 0 1 0-17.825 0ZM1.058 206.645l-.145 1.665h.004a.033.033 0 0 0 .011.001l.043.004.17.015.661.056c.58.049 1.431.119 2.52.207l.27-3.331a687.36 687.36 0 0 1-2.51-.207l-.656-.055-.167-.015-.042-.003-.01-.001-.003-.001-.146 1.665Zm10.075 2.475c2.04.151 4.327.315 6.81.485l.227-3.334c-2.475-.17-4.756-.334-6.79-.485l-.247 3.334Zm13.64.933c2.195.137 4.483.274 6.837.407l.188-3.337a1081.52 1081.52 0 0 1-6.816-.406l-.209 3.336Zm13.678.769c2.25.111 4.535.216 6.833.311l.139-3.339c-2.29-.095-4.565-.199-6.807-.31l-.165 3.338Zm13.68.564c2.293.073 4.581.135 6.844.182l.07-3.342a570.297 570.297 0 0 1-6.808-.181l-.107 3.341Zm13.707.276c2.35.015 4.649.009 6.87-.02l-.045-3.342c-2.197.029-4.473.035-6.804.02l-.02 3.342Zm13.75-.204c2.463-.103 4.78-.248 6.903-.44l-.302-3.329c-2.058.187-4.319.328-6.742.43l.14 3.339Zm13.845-1.395c1.324-.272 2.513-.591 3.52-.971l-1.18-3.127c-.787.297-1.793.574-3.011.823l.67 3.275Zm3.52-.971a45.104 45.104 0 0 0 3.158-1.341l-1.417-3.028a41.29 41.29 0 0 1-2.92 1.242l1.18 3.127Zm9.141-4.543a93.595 93.595 0 0 0 5.647-3.661l-1.914-2.74a90.215 90.215 0 0 1-5.445 3.53l1.712 2.871Zm11.037-7.68a124.193 124.193 0 0 0 5.137-4.308l-2.216-2.502a120.342 120.342 0 0 1-4.997 4.191l2.076 2.619Zm10.039-8.88a135.209 135.209 0 0 0 4.664-4.813l-2.457-2.266a131.051 131.051 0 0 1-4.548 4.693l2.341 2.386Zm9.086-9.849a137.74 137.74 0 0 0 4.173-5.247l-2.665-2.016c-1.34 1.77-2.7 3.477-4.073 5.12l2.565 2.143Zm8.082-10.682c1.24-1.816 2.455-3.69 3.641-5.62l-2.849-1.749a133.995 133.995 0 0 1-3.552 5.484l2.76 1.885Zm7.007-11.418a137.133 137.133 0 0 0 3.075-5.949l-3.006-1.461a133.26 133.26 0 0 1-3 5.803l2.931 1.607Zm5.854-12.046c.865-2.03 1.692-4.106 2.475-6.228l-3.136-1.157a132.38 132.38 0 0 1-2.414 6.074l3.075 1.311Zm4.638-12.568c.334-1.061.656-2.133.967-3.216l-3.213-.922a131.912 131.912 0 0 1-.942 3.137l3.188 1.001Zm.967-3.216c.309-1.077.611-2.15.907-3.217l-3.221-.893a363.199 363.199 0 0 1-.899 3.188l3.213.922Zm2.629-9.641a482.595 482.595 0 0 0 1.622-6.439l-3.247-.795a479.603 479.603 0 0 1-1.61 6.395l3.235.839Zm3.168-12.912c.512-2.19 1.006-4.349 1.487-6.474l-3.259-.738c-.481 2.12-.973 4.271-1.482 6.452l3.254.76Zm2.94-12.936c.492-2.197.976-4.351 1.456-6.463l-3.259-.741c-.482 2.117-.966 4.277-1.458 6.473l3.261.731Zm2.953-12.904c.521-2.189 1.047-4.321 1.584-6.396l-3.236-.837c-.543 2.1-1.074 4.254-1.599 6.458l3.251.775Zm3.323-12.741c.632-2.161 1.286-4.244 1.974-6.247l-3.161-1.085a142.86 142.86 0 0 0-2.021 6.395l3.208.937Zm4.281-12.328c.866-2.056 1.786-4 2.774-5.83l-2.941-1.589a70.421 70.421 0 0 0-2.913 6.122l3.08 1.297Zm6.165-11.26a37.048 37.048 0 0 1 4.131-4.805l-2.333-2.394a40.458 40.458 0 0 0-4.503 5.235l2.705 1.963Zm9.037-8.74a32.954 32.954 0 0 1 5.582-2.91l-1.26-3.095c-2.209.9-4.252 1.97-6.147 3.205l1.825 2.8Zm11.648-4.8a49.884 49.884 0 0 1 6.313-.995l-.318-3.327a53.248 53.248 0 0 0-6.735 1.064l.74 3.259Zm12.761-1.277a80.95 80.95 0 0 1 3.277.077l.145-3.34a84.52 84.52 0 0 0-3.412-.08l-.01 3.343ZM166.936 293.124l-1.624.395 1.624-.395Zm51.96 111.626a8.914 8.914 0 1 1 17.827.133 8.914 8.914 0 0 1-17.827-.133ZM105.602 206.241c.99.436 2.047.947 3.161 1.535l-1.559 2.956a46.501 46.501 0 0 0-2.949-1.432l1.347-3.059Zm9.131 5.083a94.802 94.802 0 0 1 5.642 4.021l-2.035 2.651a91.615 91.615 0 0 0-5.442-3.879l1.835-2.793Zm10.968 8.39a118.726 118.726 0 0 1 5.059 4.686l-2.341 2.386a115.238 115.238 0 0 0-4.916-4.555l2.198-2.517Zm9.843 9.645a130.035 130.035 0 0 1 4.505 5.204l-2.583 2.121a127.112 127.112 0 0 0-4.39-5.071l2.468-2.254Zm8.732 10.632a135.92 135.92 0 0 1 3.945 5.634l-2.784 1.848a133.255 133.255 0 0 0-3.85-5.497l2.689-1.985Zm7.608 11.462a142.968 142.968 0 0 1 3.371 5.995l-2.953 1.567a137.54 137.54 0 0 0-3.291-5.854l2.873-1.708Zm6.446 12.138c.962 2.041 1.893 4.14 2.788 6.296l-3.086 1.282a144.772 144.772 0 0 0-2.726-6.153l3.024-1.425Zm5.274 12.69c.77 2.121 1.504 4.294 2.2 6.518l-3.189.998c-.681-2.176-1.4-4.301-2.153-6.376l3.142-1.14Zm4.106 13.109c.293 1.101.576 2.214.85 3.339l-3.248.79a157.672 157.672 0 0 0-.832-3.271l3.23-.858Zm.85 3.339c.255 1.05.505 2.095.75 3.136l-3.253.766a434.1 434.1 0 0 0-.745-3.112l3.248-.79Zm2.179 9.39c.467 2.109.917 4.199 1.351 6.267l-3.271.686a568.342 568.342 0 0 0-1.344-6.23l3.264-.723Zm2.637 12.544c.424 2.119.834 4.213 1.234 6.28l-3.282.634a899.036 899.036 0 0 0-1.23-6.258l3.278-.656Zm2.433 12.559c.402 2.128.796 4.227 1.185 6.289l-3.284.619c-.39-2.065-.783-4.16-1.185-6.287l3.284-.621Zm2.378 12.573c.408 2.129.815 4.216 1.225 6.262l-3.278.656c-.412-2.057-.82-4.154-1.23-6.288l3.283-.63Zm2.514 12.486a289.54 289.54 0 0 0 1.403 6.211l-3.251.775a289.11 289.11 0 0 1-1.419-6.283l3.267-.703Zm2.966 12.354a138.48 138.48 0 0 0 1.791 6.055l-3.181 1.025a142.176 142.176 0 0 1-1.835-6.201l3.225-.879Zm3.897 11.973a70.643 70.643 0 0 0 2.535 5.712l-2.987 1.498a73.528 73.528 0 0 1-2.657-5.984l3.109-1.226Zm5.62 11.07a38.648 38.648 0 0 0 3.761 4.824l-2.458 2.265a41.843 41.843 0 0 1-4.087-5.24l2.784-1.849Zm8.265 8.881a30.477 30.477 0 0 0 5.197 3.094l-1.42 3.026a33.859 33.859 0 0 1-5.764-3.432l1.987-2.688Zm10.927 5.166c1.878.5 3.882.879 6.027 1.128l-.387 3.32a45.889 45.889 0 0 1-6.5-1.218l.86-3.23Zm12.212 1.483a67.624 67.624 0 0 0 3.15-.062l.141 3.34a71.372 71.372 0 0 1-3.304.064l.013-3.342ZM217.062 206.536a8 8 0 1 0 16-.073 8 8 0 0 0-16 .073ZM113.065 208.5l3.111-.014-.013-3-3.111.014.013 3Zm9.334-.042 6.222-.027-.013-3-6.223.027.014 3Zm12.445-.055 6.222-.028-.013-3-6.223.028.014 3Zm12.444-.056 6.223-.028-.013-3-6.223.028.013 3Zm12.445-.055 6.223-.028-.014-3-6.222.028.013 3Zm12.445-.056 6.223-.028-.014-3-6.222.028.013 3Zm12.445-.055 6.223-.028-.014-3-6.222.028.013 3Zm12.445-.056 6.222-.028-.013-3-6.222.028.013 3Zm12.445-.056 6.222-.027-.013-3-6.223.027.014 3Zm12.445-.055 3.111-.014-.013-3-3.112.014.014 3Z" fill="#CC5A5A"/></svg>