<svg width="20" height="20" fill="none" xmlns="http://www.w3.org/2000/svg"><path d="M19 2.8A1.8 1.8 0 0 0 17.2 1H2.8A1.8 1.8 0 0 0 1 2.8v14.4A1.8 1.8 0 0 0 2.8 19h14.4a1.8 1.8 0 0 0 1.8-1.8V2.8Z" stroke="#CC5A5A" stroke-width=".936" stroke-linecap="round" stroke-linejoin="round"/><path d="M16 6.25a2.25 2.25 0 1 1-4.5 0 2.25 2.25 0 0 1 4.5 0ZM8.5 13.75a2.25 2.25 0 1 1-4.5 0 2.25 2.25 0 0 1 4.5 0ZM11.5 13.3a1.8 1.8 0 0 1 1.8-1.8h.9a1.8 1.8 0 0 1 1.8 1.8v1.95a.75.75 0 0 1-.75.75h-3a.75.75 0 0 1-.75-.75V13.3ZM4 5.8A1.8 1.8 0 0 1 5.8 4h.9a1.8 1.8 0 0 1 1.8 1.8v1.95a.75.75 0 0 1-.75.75h-3A.75.75 0 0 1 4 7.75V5.8Z" stroke="#CC5A5A" stroke-width=".936" stroke-linecap="round" stroke-linejoin="round"/></svg>