<svg xmlns="http://www.w3.org/2000/svg" width="317" height="191" style="shape-rendering:geometricPrecision;text-rendering:geometricPrecision;image-rendering:optimizeQuality;fill-rule:evenodd;clip-rule:evenodd"><path fill="#58676e" d="M208.5-.5h26c45.214 8.88 72.547 35.88 82 81v27c-9.036 44.203-35.703 71.037-80 80.5-29.139 3.805-54.805-3.695-77-22.5 27.865-30.484 35.365-65.484 22.5-105-6.287-13.575-14.787-25.575-25.5-36 15.021-13.177 32.354-21.51 52-25Z" style="opacity:.996"/><path fill="#a42c0d" d="M156.5 24.5c10.713 10.425 19.213 22.425 25.5 36 12.865 39.516 5.365 74.516-22.5 105-14.779 12.89-31.779 21.223-51 25h-28c-44.667-9.333-71.667-36.333-81-81v-27C8.654 37.846 35.654 11.013 80.5 2c28.709-3.33 54.042 4.17 76 22.5Z" style="opacity:.999"/><path fill="#fafbfb" d="M201.5 72.5a32.438 32.438 0 0 1 8 .5 300.822 300.822 0 0 0 9.5 13.5l9.5-13.5a24.939 24.939 0 0 1 7-.5v36h-7c.166-7.341 0-14.674-.5-22l-9 14-9-13c-.5 6.992-.666 13.992-.5 21h-8v-36Z" style="opacity:1"/><path fill="#fefffe" d="M249.5 72.5v29h18v7h-25v-36h7Z" style="opacity:1"/><path fill="#fefcfc" d="M70.5 113.5c.166-7.341 0-14.674-.5-22-.717.544-1.217 1.21-1.5 2a101.251 101.251 0 0 1-8 11 101.251 101.251 0 0 1-8-11c-.283-.79-.783-1.456-1.5-2a242.43 242.43 0 0 0-.5 22h-7v-36c2.747-.313 5.413.02 8 1a138.073 138.073 0 0 0 9 13 138.073 138.073 0 0 0 9-13 16.869 16.869 0 0 1 8-1v36h-7Z" style="opacity:1"/><path fill="#fefffe" d="M84.5 77.5h26v7h-26v-7Z" style="opacity:1"/><path fill="#fbf4f3" d="M113.5 77.5c6.009-.166 12.009 0 18 .5 10.983 4.8 14.817 12.967 11.5 24.5-2.232 5.231-6.065 8.731-11.5 10.5-5.991.499-11.991.666-18 .5v-8c5.676.166 11.343-.001 17-.5 6.133-4.409 7.3-9.909 3.5-16.5a6.977 6.977 0 0 0-3.5-2.5 57.044 57.044 0 0 0-17-1.5v-7Z" style="opacity:1"/><path fill="#cf8f7e" d="M84.5 77.5v7h26c-8.818.993-17.818 1.327-27 1-.306-2.885.027-5.552 1-8Z" style="opacity:1"/><path fill="#ca8573" d="m52.5 93.5-2 20c-.166-7.341 0-14.674.5-22 .717.544 1.217 1.21 1.5 2Z" style="opacity:1"/><path fill="#ca8674" d="m70.5 113.5-2-20c.283-.79.783-1.456 1.5-2 .5 7.326.666 14.659.5 22Z" style="opacity:1"/><path fill="#fbf7f6" d="M83.5 91.5h18v8h-18v-8Z" style="opacity:1"/><path fill="#a1a9ad" d="M249.5 72.5h-7v36h25v-7h-18v-29Z" style="opacity:1"/><path fill="#cf8f7e" d="M110.5 106.5h-26v7c-.973-2.448-1.306-5.115-1-8 9.182-.327 18.182.007 27 1Z" style="opacity:1"/><path fill="#fefffe" d="M110.5 106.5v7h-26v-7h26Z" style="opacity:1"/></svg>