<svg xmlns="http://www.w3.org/2000/svg" width="377" height="377" style="shape-rendering:geometricPrecision;text-rendering:geometricPrecision;image-rendering:optimizeQuality;fill-rule:evenodd;clip-rule:evenodd"><path style="opacity:.991" fill="#58666d" d="M189.5 253.5c13.004-14.67 21.837-31.67 26.5-51 5.03-27.869-.637-53.202-17-76a260.739 260.739 0 0 1-12.5-15c24.167-21.876 52.5-29.71 85-23.5 47.381 13.215 72.381 44.381 75 93.5-2.867 51.53-29.534 83.03-80 94.5-29.303 4.1-54.97-3.4-77-22.5Z"/><path style="opacity:.997" fill="#a42c0d" d="M186.5 111.5a260.739 260.739 0 0 0 12.5 15c16.363 22.798 22.03 48.131 17 76-4.663 19.33-13.496 36.33-26.5 51-30.233 26.218-64.233 32.384-102 18.5-38.273-17.036-57.606-46.536-58-88.5 1.897-52.216 28.564-83.716 80-94.5 29.014-3.49 54.681 4.01 77 22.5Z"/><path style="opacity:.996" fill="#a9b1b5" d="M236.5 160.5h-5v35h7c-.323-6.19.01-12.19 1-18v19h-9v-37c2.235-.295 4.235.039 6 1Z"/><path style="opacity:1" fill="#f7f9f9" d="M236.5 160.5c1.322-.17 2.489.163 3.5 1a119.43 119.43 0 0 0 8.5 12 150.853 150.853 0 0 0 8.5-12c.671-.752 1.504-1.086 2.5-1h5v35h-6c.321-5.526-.012-10.86-1-16a12.93 12.93 0 0 0-.5-5 66.876 66.876 0 0 1-8.5 13 150.853 150.853 0 0 1-8.5-12 2.428 2.428 0 0 0-.5 2c-.99 5.81-1.323 11.81-1 18h-7v-35h5Z"/><path style="opacity:.996" fill="#a8b0b4" d="M259.5 160.5c1.765-.961 3.765-1.295 6-1v37h-8v-17c.988 5.14 1.321 10.474 1 16h6v-35h-5Z"/><path style="opacity:1" fill="#a2aaae" d="M271.5 159.5h8v29h18v8h-26v-37Z"/><path style="opacity:1" fill="#fdf9f9" d="M77.5 165.5c2.403-.107 4.237.893 5.5 3a52.187 52.187 0 0 0 7 10 52.187 52.187 0 0 0 7-10c1.129-1.641 2.629-2.641 4.5-3h5v35h-6c.166-6.675 0-13.342-.5-20-1.159-1.066-1.992-.733-2.5 1a89.5 89.5 0 0 1-7.5 10 89.5 89.5 0 0 1-7.5-10c-.962-2.486-1.795-2.486-2.5 0-.5 6.325-.666 12.658-.5 19h-6v-35h4Z"/><path style="opacity:1" fill="#f9efed" d="M154.5 165.5c11.232-.432 17.565 4.901 19 16-.04 12.707-6.374 19.041-19 19h-11v-7c3.871.315 7.538-.018 11-1 8.877-.398 12.377-5.065 10.5-14-2.819-4.493-6.985-6.493-12.5-6-2.787-.977-5.787-1.31-9-1v-6h11Z"/><path style="opacity:1" fill="#cb8774" d="M113.5 164.5h27v8c-8.998.633-17.998.8-27 .5-1.023-2.774-1.023-5.607 0-8.5Z"/><path style="opacity:1" fill="#fdfffd" d="M114.5 165.5h25v6h-25v-6Z"/><path style="opacity:1" fill="#cd8b7a" d="M154.5 165.5h-11v6c3.213-.31 6.213.023 9 1h-10v-8c4.202-.317 8.202.017 12 1Z"/><path style="opacity:1" fill="#cd8c7b" d="M112.5 178.5h19v9h-19v-9Z"/><path style="opacity:1" fill="#faf7f5" d="M113.5 179.5h17v7h-17v-7Z"/><path style="opacity:1" fill="#ce8e7d" d="M77.5 165.5h-4v35h6c-.166-6.342 0-12.675.5-19 .705-2.486 1.538-2.486 2.5 0-1.196 6.47-1.862 13.137-2 20h-8v-37c1.915-.284 3.581.049 5 1Z"/><path style="opacity:1" fill="#cf907f" d="M101.5 165.5c1.765-.961 3.765-1.295 6-1v37h-8c-.02-6.874-.687-13.541-2-20 .508-1.733 1.341-2.066 2.5-1 .5 6.658.666 13.325.5 20h6v-35h-5Z"/><path style="opacity:1" fill="#ce8c7c" d="M154.5 192.5c-3.462.982-7.129 1.315-11 1v7h11c-3.798.983-7.798 1.317-12 1v-9h12Z"/><path style="opacity:1" fill="#d49d8d" d="M113.5 193.5h27v8h-27v-8Z"/><path style="opacity:1" fill="#fdfffd" d="M114.5 194.5h25v6h-25v-6Z"/></svg>